<?xml version="1.0" encoding="UTF-8" standalone="no"?>
<!-- Created with Inkscape (http://www.inkscape.org/) -->

<svg
   width="197.70825mm"
   height="85.091393mm"
   viewBox="0 0 197.70825 85.091393"
   version="1.1"
   id="svg4042"
   xmlns="http://www.w3.org/2000/svg"
   xmlns:svg="http://www.w3.org/2000/svg">
  <defs
     id="defs4039" />
  <g
     id="layer1"
     transform="translate(-18.033811,-170.87404)">
    <g
       id="layer1-7"
       transform="matrix(0.09740662,0,0,0.09740662,61.251105,137.41366)"
       style="fill:#deffff">
      <path
         id="rect107829"
         style="fill:#deffff;fill-opacity:1;fill-rule:evenodd;stroke:none;stroke-width:7.64124;stroke-linecap:round;stroke-linejoin:round;paint-order:markers stroke fill;stop-color:#000000"
         d="m 1453.0753,343.51235 c -73.6633,0 -132.9663,59.29959 -132.9663,132.96288 0,73.66332 59.303,132.9664 132.9663,132.9664 73.6633,0 132.9664,-59.30308 132.9664,-132.9664 0,-14.8782 -2.4555,-29.1524 -6.9237,-42.48865 l -74.8845,90.90189 -104.6827,-86.23587 71.2737,-93.93779 c -5.8081,-0.76882 -11.7243,-1.20246 -17.7492,-1.20246 z m -62.215,105.69232 104.6827,86.23586 -112.914,33.82967 z" />
    </g>
    <g
       aria-label="Quilt"
       id="text4448"
       style="font-style:italic;font-stretch:expanded;font-size:85.3505px;line-height:1.25;font-family:'Orelo Wide';-inkscape-font-specification:'Orelo Wide Italic Expanded';letter-spacing:-0.182259px;stroke-width:0.444533">
      <path
         id="path21686"
         style="font-stretch:normal;font-family:Raleway-v4020;-inkscape-font-specification:'Raleway-v4020 Italic';fill:#ffccff;stroke-width:0.444532"
         d="m 136.25502,185.19301 -1.79214,8.53488 h 8.44961 l 1.79214,-8.53488 z m 19.7559,0 -11.43703,54.1972 c -0.1707,0.85351 -0.34158,1.70724 -0.34158,2.39004 0,3.92613 2.56056,6.23063 6.74274,6.23063 2.30446,0 5.88892,-0.68283 8.10803,-1.53634 l 0.17105,-4.69429 c -1.5363,0.59746 -3.49939,0.93896 -4.69429,0.93896 -2.56052,0 -4.01164,-1.36551 -4.01164,-3.75532 0,-0.51212 0.0852,-0.9389 0.17053,-1.53635 l 11.09597,-52.23453 z m -103.666541,1.28002 c -17.923599,0 -34.310568,17.66761 -34.310568,36.53007 0,12.97328 7.340058,24.92251 21.508249,24.92251 6.059879,0 11.863546,-1.96343 16.899226,-5.37745 l 8.808249,13.41727 H 189.1877 v -3.85816 H 68.723741 L 60.538194,239.476 c 7.852249,-6.91339 13.1439,-17.24111 13.1439,-27.90993 0,-12.80258 -7.169526,-25.09304 -21.337715,-25.09304 z m 126.870301,1.53634 -3.24374,15.02182 h -5.80378 l -1.02423,4.60902 h 5.88957 l -6.74274,31.83579 c -0.17071,0.76815 -0.25632,1.53627 -0.25632,2.13372 0,4.26753 3.15787,6.40116 7.42539,6.40116 4.52359,0 8.79132,-1.62163 10.24227,-2.64584 l -0.51213,-4.69428 c -0.76814,0.42675 -3.75537,1.96319 -6.828,1.96319 -2.21911,0 -4.0969,-1.10956 -4.0969,-3.67006 0,-0.51212 0.17079,-1.19513 0.42685,-2.39004 l 6.14536,-28.93364 h 9.64435 l 1.02423,-4.60902 h -9.73013 l 3.24371,-15.02182 z m -128.065061,3.8406 c 11.010209,0 16.558162,9.47414 16.558162,20.14295 0,8.36435 -3.840798,17.07006 -9.900687,23.04459 l -3.670059,-6.14536 h -5.889564 l 5.633249,9.38857 c -3.840771,2.64587 -8.364271,4.26744 -13.143902,4.26744 -11.095559,0 -16.643427,-9.38836 -16.643427,-20.05717 0,-14.85099 11.949189,-30.64102 27.056228,-30.64102 z m 34.0434,11.18122 -5.633249,26.11727 c -0.597448,2.98727 -0.938959,5.54785 -0.938959,7.76697 0,7.51084 3.499411,11.43703 10.412802,11.43703 7.340139,0 14.851307,-4.01153 20.057687,-10.92492 -1.10956,5.03569 -1.19527,6.14512 -1.19527,6.91328 0,1.96306 1.28025,3.24313 3.67005,3.32848 0.59746,0.0854 1.36584,-0.0852 2.39004,-0.17054 l 1.10949,-5.12113 c -1.10956,0 -1.6216,-0.42687 -1.6216,-1.45108 0,-0.25604 0.17044,-0.9388 0.2558,-1.6216 l 7.76696,-36.27376 h -5.80378 l -5.97431,27.99468 c -4.09682,7.42549 -11.181108,12.20545 -17.582387,12.20545 -4.864981,0 -7.340121,-2.73112 -7.340121,-8.44961 0,-1.87771 0.256233,-4.09695 0.853694,-6.65748 l 5.291667,-25.09304 z m 48.808911,1.05833 -9.38858,43.40924 h 5.80378 l 9.38858,-44.46757 z" />
    </g>
  </g>
</svg>
